<?xml version="1.0" encoding="utf-8"?>
<!-- Generator: Adobe Illustrator 17.0.0, SVG Export Plug-In . SVG Version: 6.00 Build 0)  -->
<!DOCTYPE svg PUBLIC "-//W3C//DTD SVG 1.1//EN" "http://www.w3.org/Graphics/SVG/1.1/DTD/svg11.dtd">
<svg version="1.1" id="Layer_1" xmlns="http://www.w3.org/2000/svg" xmlns:xlink="http://www.w3.org/1999/xlink" x="0px" y="0px"
	 width="320px" height="315.448px" viewBox="0 0 320 315.448" enable-background="new 0 0 320 315.448" xml:space="preserve">
<path fill="#FFFFFF" d="M295.981,252.93C367.118,132.933,267.237,18.683,165.923,0c86.944,56.767,141.556,132.933,92.693,219.877
	c-1.899,2.567-3.945,5.016-6.113,7.355L122.81,104.192l39.52-40.958l-49.58-7.905L44.489,123.59l29.461,30.181l32.335-32.335
	c0,0,66.435,68.455,120.525,124.041c-30.944,13.387-78.233,9.994-151.424-25.601L63.89,232.81c0,0-9.34-2.156-14.372,2.876
	c-5.029,5.029,0.718,14.37-0.718,17.243c-1.438,2.876-31.617,19.403-37.366,25.15c-5.749,5.749-15.807,26.588-9.34,33.055
	c6.467,6.465,20.839,2.873,33.053-9.343c12.216-12.214,22.274-40.237,25.15-42.393c2.874-2.156,7.905,3.591,13.652-0.72
	s0.718-15.09,0.718-15.09s3.593-2.156,5.029-4.311c15.053,10.662,98.548,84.28,180.705,40.688
	c20.632,21.156,34.861,35.676,34.861,35.48c11.498-2.156,22.994-12.934,23.712-25.15l-31.182-29.584
	C290.533,258.274,293.263,255.692,295.981,252.93z"/>
</svg>
